<?xml version="1.0" encoding="UTF-8"?> <svg xmlns="http://www.w3.org/2000/svg" width="211" height="157" viewBox="0 0 211 157" fill="none"> <path d="M160.41 23.681C156.102 24.674 152.491 27.5605 149.256 30.5774C137.992 41.0967 129.126 54.2457 116.436 62.9431C104.078 71.3231 89.0717 74.8692 74.2702 72.9069C66.2756 71.8129 58.5334 69.12 50.4799 68.7539C42.4263 68.3878 33.5144 70.984 29.3614 77.8888C25.7596 83.8722 26.7273 91.9257 30.7036 97.6651C34.6799 103.404 41.2229 107.015 48.0015 108.664C54.7801 110.313 61.8869 110.191 68.8507 109.724C93.9034 108.041 118.455 102.15 142.793 95.9694C149.748 94.2063 156.75 92.4054 163.238 89.3464C169.726 86.2874 175.747 81.8525 179.593 75.7976C182.459 71.2785 184.032 65.7454 182.959 60.5068C181.887 55.2682 177.797 50.5219 172.533 49.5668C173.711 49.7814 175.247 41.3239 175.331 40.3982C175.63 37.0741 175.331 33.3671 174.069 30.2492C171.965 25.1452 165.725 22.4523 160.41 23.681Z" fill="#FF9501"></path> <path opacity="0.9" d="M160.41 23.681C156.102 24.674 152.491 27.5605 149.256 30.5774C137.992 41.0967 129.126 54.2457 116.436 62.9431C104.078 71.3231 89.0717 74.8692 74.2702 72.9069C66.2756 71.8129 58.5334 69.12 50.4799 68.7539C42.4263 68.3878 33.5144 70.984 29.3614 77.8888C25.7596 83.8722 26.7273 91.9257 30.7036 97.6651C34.6799 103.404 41.2229 107.015 48.0015 108.664C54.7801 110.313 61.8869 110.191 68.8507 109.724C93.9034 108.041 118.455 102.15 142.793 95.9694C149.748 94.2063 156.75 92.4054 163.238 89.3464C169.726 86.2874 175.747 81.8525 179.593 75.7976C182.459 71.2785 184.032 65.7454 182.959 60.5068C181.887 55.2682 177.797 50.5219 172.533 49.5668C173.711 49.7814 175.247 41.3239 175.331 40.3982C175.63 37.0741 175.331 33.3671 174.069 30.2492C171.965 25.1452 165.725 22.4523 160.41 23.681Z" fill="white"></path> <path d="M105.193 156.531C150.25 156.531 186.776 154.398 186.776 151.768C186.776 149.137 150.25 147.005 105.193 147.005C60.1355 147.005 23.6094 149.137 23.6094 151.768C23.6094 154.398 60.1355 156.531 105.193 156.531Z" fill="#F5F5F5"></path> <path d="M160.537 96.508L159.518 96.2597C158.429 96.0306 157.367 95.6864 156.35 95.233L156.215 95.1699C155.218 94.686 153.973 94.0843 153.691 91.9847C153.69 91.8479 153.641 91.7158 153.551 91.6123C153.462 91.5089 153.338 91.441 153.203 91.4208C143.916 90.9748 136.595 85.8204 136.877 79.9296C137.159 74.0388 144.951 69.6081 154.229 70.0499C163.507 70.4917 170.833 75.6588 170.547 81.5496C170.366 85.3113 167.033 88.7027 161.845 90.3521C161.698 90.411 161.424 90.4867 161.05 90.5835C159.758 90.9243 157.347 91.5597 156.741 92.8178C156.443 93.4363 156.922 94.2358 157.528 94.6734C157.851 94.8917 158.191 95.0817 158.546 95.2414C158.941 95.4231 159.32 95.6385 159.678 95.8852L160.537 96.508ZM152.963 70.4202C144.484 70.4202 137.588 74.5311 137.327 79.9254C137.053 85.5848 144.198 90.5456 153.249 90.9832C153.484 91.0044 153.704 91.1104 153.867 91.2814C154.031 91.4524 154.126 91.6769 154.137 91.9131C154.372 93.7856 155.458 94.3073 156.413 94.7702L156.548 94.8333C157.002 95.0532 157.473 95.2361 157.957 95.3803C157.732 95.2676 157.515 95.1382 157.309 94.9932C156.552 94.442 155.992 93.449 156.392 92.6116C157.082 91.181 159.615 90.5078 160.974 90.1543C161.319 90.0618 161.593 89.9902 161.732 89.9355C166.781 88.3156 169.983 85.0925 170.147 81.5201C170.421 75.8607 163.28 70.8999 154.229 70.4623C153.8 70.4496 153.371 70.4412 152.95 70.4412L152.963 70.4202Z" fill="#FF9501"></path> <path d="M154.557 86.1696L153.362 87.0406C153.355 87.0499 153.344 87.0571 153.333 87.0616L152.176 86.0939C148.57 82.9591 144.472 79.513 147.695 76.6981C149.929 74.7415 152.521 76.5634 153.83 77.7458C155.214 76.6518 158.121 73.5381 160.562 77.325C162.615 80.4682 158.357 83.2789 154.557 86.1696Z" fill="#FF9501"></path> <path opacity="0.5" d="M147.871 77.9015C147.97 77.9064 148.063 77.9497 148.13 78.0222C148.197 78.0946 148.234 78.1904 148.231 78.2892C148.229 78.3879 148.188 78.4818 148.117 78.5508C148.046 78.6198 147.951 78.6584 147.852 78.6584C147.754 78.6584 147.659 78.6198 147.588 78.5508C147.517 78.4818 147.476 78.3879 147.474 78.2892C147.471 78.1904 147.508 78.0946 147.575 78.0222C147.642 77.9497 147.735 77.9064 147.834 77.9015H147.871Z" fill="white"></path> <path opacity="0.5" d="M149.289 82.1597C148.292 81.5117 149.289 79.2479 148.027 79.0586C147.127 79.4373 148.057 81.3518 149.289 82.1597Z" fill="white"></path> <path d="M193.142 131.318H16.3512V137.865H193.142V131.318Z" fill="#FF9501"></path> <g opacity="0.7"> <path opacity="0.7" d="M193.142 131.318H16.3512V137.865H193.142V131.318Z" fill="white"></path> </g> <path d="M25.8858 131.318H25.465V138.181H25.8858V131.318Z" fill="white"></path> <path d="M65.4298 131.318H65.0091V138.181H65.4298V131.318Z" fill="white"></path> <path d="M104.974 131.318H104.553V138.181H104.974V131.318Z" fill="white"></path> <path d="M144.518 131.318H144.097V138.181H144.518V131.318Z" fill="white"></path> <path d="M184.062 131.318H183.641V138.181H184.062V131.318Z" fill="white"></path> <path d="M140.537 21.8506C132.964 13.856 123.425 11.1336 116.444 14.1169C115.44 14.5477 114.331 14.6713 113.257 14.4721C112.183 14.2728 111.193 13.7597 110.41 12.9976C101.957 4.83887 88.2651 3.87109 82.5847 11.5712C81.9495 12.4335 81.4039 13.3584 80.9563 14.3314C80.2282 15.9321 79.0609 17.2934 77.5901 18.2572C76.59 18.9166 75.7152 19.7487 75.0066 20.7145C73.2057 23.1592 72.423 26.3529 72.5619 29.7779C72.5907 30.2696 72.4719 30.7586 72.2208 31.1822C71.9696 31.6059 71.5975 31.9447 71.1523 32.1553C69.5982 32.8573 68.2538 33.9522 67.2518 35.3321C62.6528 41.5679 64.6809 52.6763 71.7877 60.1576C78.0992 66.8142 86.3379 68.3374 91.3072 64.1801C91.5188 64.0061 91.7843 63.9109 92.0583 63.9109C92.3323 63.9109 92.5978 64.0061 92.8094 64.1801C96.3859 67.0498 100.543 67.0708 102.706 63.9571C102.801 63.8191 102.924 63.7028 103.067 63.616C103.211 63.5291 103.371 63.4737 103.537 63.4534C103.703 63.4331 103.872 63.4484 104.032 63.4983C104.192 63.5481 104.339 63.6314 104.465 63.7425C108.151 67.0414 112.611 67.2223 114.879 63.9571C115.284 63.3642 115.596 62.7129 115.805 62.0258C115.849 61.8734 115.924 61.7318 116.026 61.6096C116.127 61.4873 116.252 61.3871 116.394 61.315C116.535 61.2429 116.69 61.2005 116.848 61.1903C117.007 61.1801 117.166 61.2024 117.315 61.2558C119.73 62.1184 122.095 61.7439 123.707 60.0482C123.878 59.868 124.104 59.749 124.349 59.7095C124.595 59.67 124.846 59.7121 125.066 59.8294C133.338 64.2433 142.052 63.3933 146.904 56.8167C153.392 48.0141 150.535 32.3699 140.537 21.8506Z" fill="#FF9501"></path> <path opacity="0.5" d="M140.537 21.8506C132.964 13.856 123.425 11.1336 116.444 14.1169C115.44 14.5477 114.331 14.6713 113.257 14.4721C112.183 14.2728 111.193 13.7597 110.41 12.9976C101.957 4.83887 88.2651 3.87109 82.5847 11.5712C81.9495 12.4335 81.4039 13.3584 80.9563 14.3314C80.2282 15.9321 79.0609 17.2934 77.5901 18.2572C76.59 18.9166 75.7152 19.7487 75.0066 20.7145C73.2057 23.1592 72.423 26.3529 72.5619 29.7779C72.5907 30.2696 72.4719 30.7586 72.2208 31.1822C71.9696 31.6059 71.5975 31.9447 71.1523 32.1553C69.5982 32.8573 68.2538 33.9522 67.2518 35.3321C62.6528 41.5679 64.6809 52.6763 71.7877 60.1576C78.0992 66.8142 86.3379 68.3374 91.3072 64.1801C91.5188 64.0061 91.7843 63.9109 92.0583 63.9109C92.3323 63.9109 92.5978 64.0061 92.8094 64.1801C96.3859 67.0498 100.543 67.0708 102.706 63.9571C102.801 63.8191 102.924 63.7028 103.067 63.616C103.211 63.5291 103.371 63.4737 103.537 63.4534C103.703 63.4331 103.872 63.4484 104.032 63.4983C104.192 63.5481 104.339 63.6314 104.465 63.7425C108.151 67.0414 112.611 67.2223 114.879 63.9571C115.284 63.3642 115.596 62.7129 115.805 62.0258C115.849 61.8734 115.924 61.7318 116.026 61.6096C116.127 61.4873 116.252 61.3871 116.394 61.315C116.535 61.2429 116.69 61.2005 116.848 61.1903C117.007 61.1801 117.166 61.2024 117.315 61.2558C119.73 62.1184 122.095 61.7439 123.707 60.0482C123.878 59.868 124.104 59.749 124.349 59.7095C124.595 59.67 124.846 59.7121 125.066 59.8294C133.338 64.2433 142.052 63.3933 146.904 56.8167C153.392 48.0141 150.535 32.3699 140.537 21.8506Z" fill="white"></path> <path d="M88.446 67.8114L95.212 74.0977C94.6692 82.9633 94.2274 103.383 94.2274 103.383L91.8206 117.66L113.027 117.854C113.027 117.854 112.064 105.799 112.064 105.142C112.064 104.486 107.966 81.3897 107.966 81.3897L106.518 68.4552L117.458 65.1185L119.457 59.3539L127.493 54.8054L131.419 48.7757L129.905 48.4054L125.566 53.9765L120.517 55.0747L122.684 49.9455H120.256L114.231 61.8533L106.455 63.4228L107.469 46.7308C100 49.0745 99.2766 44.8036 99.2766 44.8036C99.2766 44.8036 96.7141 67.2686 95.8095 69.8269L91.8079 67.8114L87.4782 60.9612H85.5511L88.446 67.8114Z" fill="#FF9501"></path> <path opacity="0.7" d="M88.446 67.8114L95.212 74.0977C94.6692 82.9633 94.2274 103.383 94.2274 103.383L91.8206 117.66L113.027 117.854C113.027 117.854 112.064 105.799 112.064 105.142C112.064 104.486 107.966 81.3897 107.966 81.3897L106.518 68.4552L117.458 65.1185L119.457 59.3539L127.493 54.8054L131.419 48.7757L129.905 48.4054L125.566 53.9765L120.517 55.0747L122.684 49.9455H120.256L114.231 61.8533L106.455 63.4228L107.469 46.7308C100 49.0745 99.2766 44.8036 99.2766 44.8036C99.2766 44.8036 96.7141 67.2686 95.8095 69.8269L91.8079 67.8114L87.4782 60.9612H85.5511L88.446 67.8114Z" fill="white"></path> <path d="M91.7785 110.208C91.3914 109.665 91.1642 109.333 91.1642 109.333C91.1642 109.333 96.1798 109.262 99.6006 110.566C103.022 111.87 108.98 117.319 112.926 116.006C114.584 115.477 116.197 114.816 117.748 114.029C118.596 113.575 119.476 113.187 120.382 112.868C121.198 112.606 122.029 112.391 122.869 112.224C122.869 112.224 124.384 112.859 120.942 116.89C117.5 120.921 114.21 122.81 110.103 122.251C107.881 121.948 101.949 120.042 98.6118 117.719C97.177 116.722 95.2457 114.744 93.9076 113.133C94.1517 113.086 94.7491 113.406 95.456 112.935C95.0051 112.948 94.5565 112.866 94.1391 112.695C93.7217 112.524 93.3447 112.267 93.0324 111.942C93.2175 112.02 93.4213 112.043 93.6192 112.008C93.8171 111.973 94.0006 111.881 94.1474 111.744C93.6679 111.666 93.2099 111.489 92.8021 111.224C92.3944 110.96 92.0459 110.614 91.7785 110.208Z" fill="#FF9501"></path> <path opacity="0.1" d="M104.717 117.816L103.594 118.59C103.924 118.757 104.292 118.834 104.661 118.813C105.031 118.793 105.388 118.675 105.698 118.472L105.033 119.541L115.131 119.044C115.452 119.003 115.777 119.038 116.082 119.145C116.34 119.294 116.544 119.521 116.664 119.793C116.785 120.066 116.815 120.369 116.751 120.66L116.726 120.761C114.786 122.07 112.427 122.609 110.111 122.272C107.89 121.969 101.957 120.063 98.6202 117.74C98.0877 117.363 97.5829 116.948 97.1097 116.499C98.0822 116.598 99.0364 116.83 99.9457 117.189C101.481 117.74 103.165 118.342 104.717 117.816Z" fill="black"></path> <path d="M114.412 123.105L112.598 133.233C112.523 133.657 112.308 134.043 111.988 134.331L111.567 134.727C110.93 135.299 110.532 136.091 110.452 136.944L109.304 149.092C109.258 149.575 109.375 150.059 109.636 150.468L110.818 152.311C110.864 152.38 110.926 152.437 111 152.475C111.074 152.513 111.156 152.532 111.239 152.529H115.081C115.169 152.528 115.255 152.503 115.33 152.457C115.404 152.41 115.465 152.344 115.504 152.265C115.544 152.186 115.561 152.098 115.554 152.011C115.547 151.923 115.515 151.839 115.464 151.768C114.704 150.685 113.734 149.768 112.611 149.071C110.562 147.918 121.897 130.439 121.897 130.439C121.897 130.439 118.262 116.553 114.412 123.105Z" fill="#FF9501"></path> <path opacity="0.1" d="M114.412 123.105L112.598 133.233C112.523 133.657 112.308 134.043 111.988 134.331L111.567 134.727C110.93 135.299 110.532 136.091 110.452 136.944L109.304 149.092C109.258 149.575 109.375 150.059 109.636 150.468L110.818 152.311C110.864 152.38 110.926 152.437 111 152.475C111.074 152.513 111.156 152.532 111.239 152.529H115.081C115.169 152.528 115.255 152.503 115.33 152.457C115.404 152.41 115.465 152.344 115.504 152.265C115.544 152.186 115.561 152.098 115.554 152.011C115.547 151.923 115.515 151.839 115.464 151.768C114.704 150.685 113.734 149.768 112.611 149.071C110.562 147.918 121.897 130.439 121.897 130.439C121.897 130.439 118.262 116.553 114.412 123.105Z" fill="black"></path> <path d="M165.401 123.235L167.833 129.505C167.999 129.935 168.109 130.385 168.161 130.843L168.645 135.139C168.786 136.4 169.232 137.607 169.945 138.657C171.313 140.672 173.913 146.007 174.712 147.661C174.871 147.988 175.101 148.276 175.386 148.503L177.069 149.857C177.326 150.062 177.538 150.317 177.694 150.606C177.849 150.896 177.944 151.213 177.973 151.541C178.032 152.151 178.045 152.803 177.835 152.803H175.705C175.346 152.803 174.992 152.725 174.666 152.574C174.34 152.423 174.052 152.202 173.82 151.928C172.76 150.665 170.875 148.519 170.412 148.385C169.865 148.225 164.067 141.711 161.521 138.892C160.931 138.236 160.604 137.385 160.604 136.502C160.604 136.264 160.548 136.028 160.441 135.815C160.333 135.602 160.177 135.417 159.985 135.276C159.793 135.134 159.57 135.039 159.335 135C159.1 134.96 158.859 134.976 158.631 135.046C156.947 135.56 153.51 135.989 152.479 136.107C152.479 136.107 159.83 128.112 159.632 122.92C159.434 117.727 165.245 119.819 165.384 121.152C165.467 121.844 165.473 122.543 165.401 123.235Z" fill="#FF9501"></path> <path opacity="0.1" d="M165.401 123.235L167.833 129.505C167.999 129.935 168.109 130.385 168.161 130.843L168.645 135.139C168.786 136.4 169.232 137.607 169.945 138.657C171.313 140.672 173.913 146.007 174.712 147.661C174.871 147.988 175.101 148.276 175.386 148.503L177.069 149.857C177.326 150.062 177.538 150.317 177.694 150.606C177.849 150.896 177.944 151.213 177.973 151.541C178.032 152.151 178.045 152.803 177.835 152.803H175.705C175.346 152.803 174.992 152.725 174.666 152.574C174.34 152.423 174.052 152.202 173.82 151.928C172.76 150.665 170.875 148.519 170.412 148.385C169.865 148.225 164.067 141.711 161.521 138.892C160.931 138.236 160.604 137.385 160.604 136.502C160.604 136.264 160.548 136.028 160.441 135.815C160.333 135.602 160.177 135.417 159.985 135.276C159.793 135.134 159.57 135.039 159.335 135C159.1 134.96 158.859 134.976 158.631 135.046C156.947 135.56 153.51 135.989 152.479 136.107C152.479 136.107 159.83 128.112 159.632 122.92C159.434 117.727 165.245 119.819 165.384 121.152C165.467 121.844 165.473 122.543 165.401 123.235Z" fill="black"></path> <path d="M119.92 113.053H119.97C120.778 112.796 121.767 112.535 122.916 112.278C130.746 110.473 145.301 108.677 152.205 108.866C152.546 108.866 152.866 108.891 153.165 108.912H153.194C153.701 108.939 154.205 108.997 154.705 109.085C155.012 109.133 155.312 109.221 155.597 109.346C155.705 109.391 155.805 109.455 155.891 109.535C159.257 112.809 164.534 115.026 165.199 120.711C165.212 120.793 165.22 120.876 165.224 120.959C165.267 121.409 165.279 121.862 165.262 122.314C165.262 122.394 165.262 122.478 165.262 122.562C165.262 122.743 165.241 122.932 165.22 123.122C165.222 123.155 165.222 123.189 165.22 123.223C164.988 125.453 164.147 128.133 162.468 131.436C162.321 131.726 162.165 132.021 162.001 132.324C161.384 133.356 160.452 134.163 159.342 134.626L159.144 134.718C158.637 134.942 158.115 135.132 157.583 135.286H157.562C156.104 135.687 154.61 135.938 153.102 136.035L152.736 136.06C152.36 136.083 151.983 136.083 151.608 136.06C150.581 135.98 149.529 135.795 148.587 135.947C148.505 135.959 148.423 135.976 148.343 135.997L148.225 136.023C147.829 136.122 147.461 136.309 147.148 136.57C147.081 136.618 147.019 136.673 146.963 136.734C146.738 136.959 146.544 137.214 146.386 137.491C146.116 137.966 145.943 138.489 145.877 139.031C145.835 139.33 145.789 139.637 145.742 139.957C145.145 143.975 144.4 149.403 147.674 150.358C148.936 150.728 148.671 151.999 148.776 152.348C149.348 154.255 144.989 153.75 144.989 153.75C143.92 153.384 142.65 152.887 141.652 153.182C141.232 153.299 140.689 152.614 140.752 152.184C141.446 147.207 140.251 142.46 139.852 135.677H139.637L131.701 135.265H131.377H131.23C131.146 135.497 129.526 141.514 130.935 144.922C132.034 147.573 134.508 149.277 137.327 149.811C138.434 150.022 138.396 151.073 138.72 152.252C139.069 153.485 136.839 153.064 135.56 153.022C135.56 153.022 128.28 150.733 125.975 146.828C125.238 145.566 126.787 144.257 126.189 142.932C124.927 140.108 122.747 137.041 120.984 134.491C120.704 134.087 120.409 133.691 120.101 133.304C119.011 131.912 117.803 130.595 116.755 129.189C116.68 129.564 116.591 129.934 116.553 130.224C116.133 129.579 115.904 128.827 115.893 128.057L115.051 129.694C114.803 127.969 114.555 126.252 114.302 124.531C114.281 124.397 114.264 124.266 114.252 124.136C114.24 123.996 114.24 123.855 114.252 123.715C114.162 123.142 114.123 122.562 114.134 121.981C114.148 120.995 114.298 120.015 114.58 119.07C115.147 117.088 116.294 115.322 117.875 113.999L119.92 113.053Z" fill="#FF9501"></path> <path opacity="0.1" d="M148.414 135.732C148.347 135.833 148.271 135.927 148.187 136.014C149.559 135.652 151.204 136.166 152.702 136.073C154.629 135.955 156.851 135.063 158.833 134.18C158.833 134.18 160.974 132.677 161.698 131.781C161.906 131.516 162.063 131.215 162.161 130.893C162.464 129.947 162.535 129.379 161.546 128.789C160.141 127.948 155.559 129.412 154.128 129.942C152.024 130.717 150.076 132.139 149.151 134.171C148.949 134.711 148.703 135.233 148.414 135.732Z" fill="black"></path> <path opacity="0.1" d="M146.925 136.725C146.981 136.665 147.043 136.61 147.11 136.561H146.971C146.945 136.612 146.929 136.668 146.925 136.725Z" fill="black"></path> <path opacity="0.1" d="M129.761 131.676C130.443 132.379 131.163 133.864 131.188 134.718C131.188 135.139 131.188 135.189 131.217 135.248L131.912 135.274L139.772 135.661C139.826 134.796 139.584 133.938 139.086 133.229L136.645 129.522C136.666 130.271 136.683 131.015 136.7 131.764C136.101 130.902 135.403 130.113 134.621 129.412C134.596 130.085 134.575 130.759 134.55 131.428L133.288 130.586C133.317 131.066 133.346 131.546 133.38 132.025C133.258 131.872 133.093 131.759 132.906 131.701C132.719 131.644 132.519 131.643 132.332 131.701C132.53 131.956 132.654 132.26 132.69 132.581C132.69 132.905 132.446 133.254 132.13 133.233C131.974 133.208 131.829 133.139 131.71 133.035C131.062 132.585 130.409 132.122 129.761 131.676Z" fill="black"></path> <path d="M157.524 101.338C160.141 100.03 163.175 99.8909 166.099 99.9119C167.441 99.9119 168.847 99.9751 170.017 100.636C171.186 101.296 172.015 102.74 171.519 104.002L174.969 104.103C175.292 105.283 175.243 106.533 174.831 107.685C174.418 108.837 173.662 109.834 172.663 110.541L173.593 110.738C174.22 110.999 174.254 111.95 173.833 112.489C173.412 113.027 172.731 113.267 172.112 113.545C170.864 114.118 169.742 114.931 168.809 115.938C167.876 116.945 167.151 118.127 166.676 119.415C166.255 120.618 165.308 123.85 164.172 124.443C162.733 125.192 161.647 122.28 160.444 121.203C158.429 119.415 156.472 117.509 155.092 115.199C152.319 110.536 152.05 104.073 157.524 101.338Z" fill="#FF9501"></path> <path opacity="0.2" d="M166.482 111.466C167.244 112.013 168.241 112.085 169.179 112.144L173.875 112.422C174 112.234 174.077 112.018 174.099 111.794C174.122 111.569 174.088 111.342 174.001 111.134C173.916 110.954 173.766 110.814 173.581 110.743L172.651 110.545C173.649 109.837 174.406 108.84 174.819 107.687C175.231 106.535 175.279 105.284 174.956 104.103L173.942 104.073V105.634C173.522 109.884 169.423 109.91 165.948 109.03C165.338 109.729 165.716 110.924 166.482 111.466Z" fill="black"></path> <path opacity="0.1" d="M152.942 112.544C151.793 113.781 155.639 110.339 155.786 108.66C156.712 108.933 157.713 108.311 158.193 107.477C158.611 106.604 158.83 105.648 158.832 104.679C158.832 104.679 158.319 107.103 156.876 107.103H155.433C155.433 107.103 153.909 111.504 152.942 112.544Z" fill="black"></path> <path d="M165.855 104.212C165.855 104.469 166.234 104.679 166.697 104.679C167.16 104.679 167.538 104.469 167.538 104.212C167.538 103.956 167.16 103.745 166.697 103.745C166.234 103.745 165.855 103.956 165.855 104.212Z" fill="#263238"></path> <path opacity="0.1" d="M165.784 119.044C165.641 118.203 165.157 117.361 164.353 117.109C164.464 117.153 164.583 117.174 164.702 117.168C164.822 117.163 164.939 117.133 165.045 117.079C165.152 117.025 165.246 116.949 165.321 116.856C165.396 116.763 165.45 116.655 165.48 116.54C165.511 116.424 165.516 116.303 165.496 116.186C165.475 116.068 165.43 115.956 165.364 115.857C165.297 115.758 165.21 115.674 165.108 115.611C165.006 115.549 164.892 115.508 164.774 115.493C165.443 115.371 165.8 114.37 165.439 113.726C165.039 113.006 164.176 112.703 163.377 112.51H163.41C165.928 112.772 168.423 113.219 170.875 113.848L171.321 113.953C169.181 115.173 167.542 117.111 166.692 119.423C166.491 119.97 166.188 120.942 165.813 121.893C165.813 121.784 165.813 121.678 165.813 121.569C165.879 120.728 165.869 119.883 165.784 119.044Z" fill="black"></path> <path d="M173.206 104.052L174.969 104.107C175.187 104.862 175.243 105.655 175.133 106.434C174.628 106.246 174.183 105.925 173.844 105.506C173.505 105.088 173.285 104.585 173.206 104.052Z" fill="#263238"></path> <path d="M170.033 111.42C170.568 111.441 171.174 111.441 171.864 111.42H171.906H172.125H172.373C172.966 111.386 173.454 111.71 174.056 112.047C174.354 112.255 174.678 112.423 175.02 112.548C175.191 112.607 175.376 112.614 175.551 112.567C175.726 112.519 175.882 112.42 176 112.283C176.086 112.128 176.121 111.949 176.1 111.773C176.079 111.597 176.003 111.432 175.882 111.302C175.631 111.051 175.313 110.878 174.965 110.806C174.278 110.63 173.567 110.572 172.861 110.633C172.782 110.637 172.703 110.645 172.625 110.658C171.637 110.738 170.723 111.218 170.033 111.42Z" fill="#E8483F"></path> <path d="M170.033 111.42C170.642 111.471 171.255 111.471 171.864 111.42C171.174 111.441 170.568 111.441 170.033 111.42Z" fill="#E8483F"></path> <path d="M167.227 110.856C168.115 111.231 169.069 111.423 170.033 111.42C170.778 111.201 171.788 110.654 172.853 110.578L172.663 110.536C170.697 110.905 168.665 110.609 166.886 109.695C166.886 109.695 165.784 110.111 167.227 110.856Z" fill="#263238"></path> <path d="M165.464 130.338C165.478 130.02 165.428 129.703 165.316 129.406C165.204 129.109 165.032 128.837 164.812 128.609C164.91 130.082 164.6 131.554 163.915 132.863L163.966 131.297C163.429 132.191 162.656 132.918 161.732 133.401C161.956 133.236 162.145 133.027 162.286 132.787C162.427 132.547 162.517 132.281 162.552 132.004C162.039 132.854 161.427 133.641 160.73 134.348C160.027 135.059 159.093 135.496 158.096 135.581C159.556 134.548 160.795 133.234 161.741 131.717C162.687 130.2 163.322 128.51 163.608 126.745C163.691 125.891 163.849 125.046 164.08 124.22C164.324 123.505 164.921 122.217 165.296 123.454C165.927 125.465 165.611 128.28 165.464 130.338Z" fill="#FF9501"></path> <path d="M148.414 137.213L147.691 136.519C147.777 137.316 147.587 138.118 147.152 138.791C147.152 138.459 147.152 138.126 147.118 137.794C146.726 138.834 146.051 139.745 145.17 140.424C145.364 139.342 145.591 138.265 145.902 137.201C146.104 136.473 146.71 134.52 147.796 134.676C148.881 134.832 147.867 136.692 148.414 137.213Z" fill="#FF9501"></path> <path d="M153.161 108.79C153.231 109.279 153.216 109.776 153.114 110.259C153.103 110.317 153.078 110.371 153.043 110.419C152.959 111.98 153.564 113.621 154.86 115.308C157.886 119.246 163.697 122.12 165.468 122.335C165.553 122.366 165.625 122.424 165.674 122.5C165.723 122.576 165.746 122.665 165.741 122.755C165.735 122.845 165.701 122.931 165.642 123C165.584 123.069 165.505 123.118 165.418 123.139H165.371C163.267 122.89 157.309 119.831 154.217 115.8C152.664 113.776 152.012 111.773 152.285 109.851C152.332 109.515 152.298 109.173 152.184 108.853L153.161 108.79Z" fill="#263238"></path> <path d="M153.771 115.8C154.044 115.434 154.612 115.055 154.452 114.618C154.755 115.552 154.844 116.272 155.576 116.928L155.475 115.872C155.899 116.97 156.616 117.931 157.549 118.649C157.53 118.296 157.38 117.963 157.128 117.715C157.927 118.261 158.842 118.616 159.8 118.75C158.588 116.553 156.241 113.637 153.737 112.931C153.745 113.545 154.154 115.291 153.771 115.8Z" fill="#FF9501"></path> <path d="M160.398 120.727C160.612 120.307 161.1 119.865 160.894 119.465C161.315 120.34 161.53 121.039 162.35 121.569L162.093 120.542C162.678 121.565 163.532 122.406 164.563 122.974C164.493 122.63 164.298 122.323 164.016 122.112C164.889 122.532 165.847 122.744 166.815 122.73C165.283 120.744 162.518 118.215 159.939 117.896C160.032 118.497 160.697 120.168 160.398 120.727Z" fill="#FF9501"></path> <path d="M61.4578 66.2798C65.0301 68.4426 80.3041 71.0934 81.234 71.0303C81.5899 71.0297 81.9397 70.9376 82.2499 70.763C82.5601 70.5884 82.8202 70.3371 83.0054 70.0331C83.1632 69.7496 83.2577 69.4354 83.2822 69.1119C83.3068 68.7884 83.2609 68.4635 83.1477 68.1595C83.0345 67.8555 82.8567 67.5796 82.6265 67.351C82.3964 67.1224 82.1194 66.9464 81.8146 66.8352C77.872 65.3289 70.8999 62.4255 67.9292 60.7677C65.5981 59.4717 69.0485 42.8176 64.6682 41.3828C57.5572 39.0601 57.2248 63.7215 61.4578 66.2798Z" fill="#FF9501"></path> <g opacity="0.1"> <path opacity="0.1" d="M61.4578 66.2798C65.0301 68.4426 80.3041 71.0934 81.234 71.0303C81.5899 71.0297 81.9397 70.9376 82.2499 70.763C82.5601 70.5884 82.8202 70.3371 83.0054 70.0331C83.1632 69.7496 83.2577 69.4354 83.2822 69.1119C83.3068 68.7884 83.2609 68.4635 83.1477 68.1595C83.0345 67.8555 82.8567 67.5796 82.6265 67.351C82.3964 67.1224 82.1194 66.9464 81.8146 66.8352C77.872 65.3289 70.8999 62.4255 67.9292 60.7677C65.5981 59.4717 69.0485 42.8176 64.6682 41.3828C57.5572 39.0601 57.2248 63.7215 61.4578 66.2798Z" fill="black"></path> </g> <path d="M80.687 71.1481L84.5959 73.172C84.5959 73.172 86.9943 69.6586 87.0701 69.2462C87.0701 69.2462 85.2145 67.723 83.199 67.7104L81.8946 67.8114C81.7182 67.8244 81.5464 67.8737 81.39 67.9563C81.2336 68.0388 81.096 68.1528 80.9857 68.2911L80.2704 69.1831C80.1498 69.3329 80.0641 69.5076 80.0194 69.6947C79.9748 69.8817 79.9723 70.0764 80.0122 70.2645C80.052 70.4526 80.1333 70.6295 80.25 70.7823C80.3667 70.9352 80.516 71.0601 80.687 71.1481Z" fill="#FFB373"></path> <path d="M83.7839 72.7933L86.906 69.1789L88.7405 70.2687C88.8205 70.3171 88.8892 70.382 88.9421 70.459C88.9949 70.5361 89.0307 70.6236 89.047 70.7156C89.0634 70.8076 89.0599 70.902 89.0368 70.9926C89.0137 71.0832 88.9715 71.1677 88.9131 71.2407L87.2889 73.2646C87.1182 73.4732 86.8851 73.6217 86.6239 73.6883C86.3627 73.755 86.087 73.7362 85.8372 73.6349L83.7839 72.7933Z" fill="#FFB373"></path> <path d="M63.7678 41.2355C65.5771 42.077 66.3598 54.4224 65.2279 67.7903C65.0049 70.4244 50.2022 70.7357 47.5345 68.3373L42.2201 46.878C42.0482 46.1834 42.0234 45.4605 42.1474 44.7557C42.2713 44.0509 42.5412 43.3798 42.9398 42.7855C43.3384 42.1912 43.8569 41.6867 44.4619 41.3046C45.0669 40.9225 45.7452 40.671 46.4531 40.5665C47.6565 40.394 53.5809 36.4682 63.7678 41.2355Z" fill="#FF9501"></path> <path d="M65.2195 67.7861C65.6402 70.1635 66.1073 75.1833 67.1087 77.3629L67.1971 77.5606C67.6419 78.5601 67.7809 79.6688 67.5967 80.7471C67.4124 81.8255 66.9132 82.8251 66.1617 83.6202C65.4103 84.4153 64.4404 84.9701 63.3742 85.2149C62.308 85.4597 61.1931 85.3834 60.1702 84.9956L57.1827 83.8596C57.1827 83.8596 55.8699 83.9311 45.7167 80.9142C45.5063 80.8511 44.8752 79.9674 44.9425 77.426C45.009 75.4369 45.4367 73.4764 46.2048 71.6404L47.5513 68.3373C53.4401 68.9069 59.3776 68.7217 65.2195 67.7861Z" fill="#263238"></path> <path d="M79.2017 139.3L79.1049 151.658C78.7136 151.86 74.4554 153.426 74.3923 152.239C74.1987 148.62 73.8158 141.017 73.8158 141.017L79.2017 139.3Z" fill="#FFB373"></path> <path d="M80.2368 148.578C80.2117 148.574 80.1884 148.563 80.1697 148.546C80.151 148.528 80.1378 148.506 80.1316 148.482C80.1266 148.457 80.1292 148.431 80.1389 148.408C80.1487 148.385 80.1652 148.365 80.1863 148.351C80.2578 148.301 81.983 147.127 82.8624 147.295C82.9461 147.306 83.0267 147.334 83.0991 147.377C83.1715 147.421 83.2341 147.479 83.2831 147.547C83.3466 147.62 83.3857 147.711 83.3947 147.806C83.4038 147.902 83.3824 147.999 83.3336 148.082C83.1611 148.397 82.5258 148.54 81.8567 148.587C81.3177 148.635 80.7753 148.632 80.2368 148.578ZM82.5931 147.518C81.8928 147.67 81.2284 147.956 80.6365 148.359C81.6043 148.418 82.9171 148.305 83.1317 147.939C83.1569 147.892 83.1822 147.817 83.0812 147.669C83.0529 147.628 83.0162 147.593 82.9734 147.567C82.9305 147.541 82.8827 147.524 82.8329 147.518C82.7519 147.507 82.6699 147.507 82.5889 147.518H82.5931Z" fill="#FF9501"></path> <path d="M80.1694 148.532C80.1524 148.518 80.1398 148.5 80.133 148.479C80.1263 148.458 80.1258 148.435 80.1316 148.414C80.1316 148.355 80.161 146.954 80.7795 146.357C80.8699 146.275 80.9757 146.213 81.0906 146.173C81.2055 146.133 81.3272 146.117 81.4486 146.125C81.554 146.113 81.6605 146.137 81.7497 146.195C81.8388 146.252 81.905 146.339 81.9367 146.441C82.0839 147.013 80.931 148.229 80.3293 148.545H80.2788L80.1694 148.532ZM80.9521 146.55C80.5994 147.029 80.4052 147.605 80.3966 148.2C81.0026 147.779 81.8062 146.803 81.6926 146.474C81.6926 146.445 81.6632 146.361 81.4444 146.352L81.3686 146.378C81.214 146.382 81.066 146.441 80.9521 146.546V146.55Z" fill="#FF9501"></path> <path d="M79.3658 147.69L74.3165 147.825C74.2125 147.824 74.1119 147.862 74.0342 147.931C73.9565 148.001 73.9072 148.096 73.8957 148.2L73.0205 152.386C72.9616 152.807 73.7779 153.274 73.8242 153.27C76.9043 153.489 83.5019 153.447 85.6942 153.346C87.8864 153.245 88.0547 151.073 87.1542 150.922C83.1148 150.232 81.5496 149.096 80.2241 148.006C79.9875 147.797 79.6813 147.685 79.3658 147.69Z" fill="#263238"></path> <g opacity="0.2"> <path opacity="0.2" d="M74.0094 144.775L73.8158 141.017L79.1975 139.3L79.1007 144.358L74.0094 144.775Z" fill="black"></path> </g> <path d="M36.3378 137.659L29.4792 147.943C29.0584 147.897 24.6235 146.87 25.221 145.839C27.0429 142.704 30.893 136.136 30.893 136.136L36.3378 137.659Z" fill="#FFB373"></path> <path d="M32.1132 146.007C32.0947 145.99 32.0817 145.968 32.0757 145.943C32.0697 145.918 32.071 145.893 32.0795 145.869C32.0889 145.845 32.1051 145.825 32.1261 145.81C32.1471 145.796 32.172 145.789 32.1974 145.789C32.2857 145.789 34.3685 145.751 35.0123 146.378C35.0744 146.43 35.1251 146.494 35.1613 146.566C35.1975 146.639 35.2184 146.718 35.2227 146.798C35.2355 146.894 35.218 146.991 35.1727 147.077C35.1274 147.162 35.0567 147.231 34.9702 147.274C34.6547 147.442 34.0445 147.211 33.4639 146.887C32.987 146.637 32.5347 146.342 32.1132 146.007ZM34.6673 146.428C33.9975 146.166 33.2827 146.037 32.5634 146.05C33.3419 146.63 34.499 147.257 34.8735 147.08C34.924 147.051 34.9829 147 34.9829 146.824C34.9805 146.773 34.9682 146.724 34.9465 146.678C34.9248 146.633 34.8943 146.592 34.8566 146.559C34.7941 146.508 34.728 146.461 34.6589 146.42L34.6673 146.428Z" fill="#FF9501"></path> <path d="M32.088 145.906C32.0807 145.886 32.0796 145.864 32.0849 145.843C32.0901 145.822 32.1014 145.803 32.1174 145.789C32.1553 145.738 32.959 144.581 33.8005 144.421C34.0435 144.387 34.2902 144.45 34.4864 144.598C34.5813 144.645 34.6568 144.724 34.6998 144.82C34.7428 144.917 34.7507 145.026 34.722 145.128C34.5284 145.688 32.9001 146.075 32.1974 146.02H32.1469L32.088 145.906ZM33.8258 144.682C33.2691 144.888 32.791 145.263 32.4583 145.755C33.2072 145.721 34.4022 145.359 34.4864 145.023C34.4864 144.989 34.5242 144.909 34.3475 144.783H34.2718C34.1416 144.693 33.9819 144.657 33.8258 144.682Z" fill="#FF9501"></path> <path d="M31.8776 144.745L27.6026 142.115C27.516 142.057 27.4108 142.033 27.3073 142.047C27.2039 142.062 27.1096 142.115 27.0429 142.195L24.0134 145.216C23.7315 145.54 24.1607 146.374 24.1985 146.399C26.6558 148.267 32.1932 151.869 34.0824 152.971C35.9717 154.074 37.3055 152.365 36.6365 151.743C33.6364 148.953 32.9506 147.144 32.4288 145.507C32.3469 145.193 32.1502 144.921 31.8776 144.745Z" fill="#263238"></path> <g opacity="0.2"> <path opacity="0.2" d="M28.9911 139.393L30.893 136.14L36.3378 137.659L33.4807 141.833L28.9911 139.393Z" fill="black"></path> </g> <path d="M55.3145 86.056C56.6231 91.2146 66.7679 104.221 70.1298 112.943C72.7176 119.676 72.4146 133.532 72.3389 141.286C72.3285 141.642 72.3988 141.996 72.5445 142.321C72.6903 142.646 72.9077 142.934 73.1804 143.163C73.1804 143.163 77.6322 142.995 79.0039 142.767C83.3841 142.044 82.1681 119.772 81.8231 114.336C81.2382 105.104 75.4484 90.0112 66.6543 76.0459C65.1816 73.7064 62.598 75.1538 59.1688 76.1006C58.546 76.2773 54.048 81.0488 55.3145 86.056Z" fill="#263238"></path> <path opacity="0.2" d="M58.0664 79.7066C57.1827 78.7725 57.1911 90.4236 57.1911 90.4236L62.0763 98.8811C62.0763 98.8811 64.8239 86.8681 58.0664 79.7066Z" fill="black"></path> <path d="M45.5695 80.039C36.1316 130.561 27.2786 134.255 29.1846 137.592C29.1846 137.592 33.1988 139.57 34.2718 140.457C36.7964 142.561 48.7042 123.206 50.3073 117.988C53.8839 106.341 58.4661 93.4111 59.173 80.3377C59.3245 77.5775 57.6372 74.9266 54.2542 73.8368C53.6356 73.6349 46.5204 74.9645 45.5695 80.039Z" fill="#263238"></path> <path opacity="0.1" d="M50.341 61.2431C50.0843 61.6639 48.5359 60.6078 48.2372 60.208C47.3283 58.9078 47.0211 56.5557 46.7434 55.0241C46.408 53.18 46.2669 51.3057 46.3226 49.4321C46.3521 48.6495 46.2259 44.8289 47.4377 46.23C48.4475 47.3619 50.5935 60.8266 50.341 61.2431Z" fill="black"></path> <path d="M60.3638 74.4133C59.8925 74.5648 59.3581 74.2997 58.9373 73.7064C58.4972 73.082 58.2156 72.36 58.1168 71.6025L56.9219 73.4581C56.6988 73.8032 56.4127 74.1566 55.9793 74.144C55.8778 74.1413 55.778 74.117 55.6866 74.0728C55.5952 74.0285 55.5142 73.9653 55.4492 73.8873C55.3387 73.7433 55.2579 73.5787 55.2117 73.4032C55.1655 73.2276 55.1546 73.0446 55.1799 72.8648C55.2777 72.1934 55.6378 71.5881 56.1813 71.1818C56.7126 70.7604 57.3878 70.5641 58.0621 70.6348L57.9948 70.4623L58.3735 70.3192L58.4114 70.416L58.4871 70.2897V70.4665C58.7919 70.3832 59.1132 70.3822 59.4184 70.4635C59.7237 70.5448 60.0019 70.7055 60.2249 70.9293C60.6896 71.4389 60.9761 72.0857 61.0412 72.7723C61.1338 73.395 61.016 74.2029 60.3764 74.4175L60.3638 74.4133ZM58.4871 70.8956V70.9798C58.4828 71.8732 58.7579 72.7457 59.274 73.475C59.5138 73.8158 59.8799 74.144 60.2502 74.0262C60.6709 73.8831 60.7046 73.1846 60.6457 72.8228C60.5934 72.2234 60.3466 71.6575 59.943 71.2112C59.7907 71.0536 59.6039 70.9335 59.3972 70.8605C59.1905 70.7875 58.9697 70.7635 58.7522 70.7905L58.4913 70.8788L58.4871 70.8956ZM57.1491 71.1144C56.8898 71.1965 56.6474 71.3248 56.4338 71.4931C55.9764 71.8374 55.6739 72.3487 55.5922 72.9153C55.559 73.1649 55.6222 73.4177 55.7689 73.6222C55.797 73.6581 55.8327 73.6873 55.8735 73.7077C55.9142 73.7281 55.959 73.7391 56.0046 73.7401C56.236 73.7401 56.4253 73.4918 56.5937 73.2393L57.999 71.064L57.9233 71.0892L57.898 71.0177C57.6433 70.9991 57.3875 71.0305 57.1449 71.1102L57.1491 71.1144Z" fill="#FF9501"></path> <path d="M55.2556 80.3672L54.8937 80.1821C56.3503 77.3426 57.0557 74.1775 56.9429 70.9882H57.3637C57.4717 74.2431 56.7461 77.4716 55.2556 80.3672Z" fill="#FF9501"></path> <path d="M63.225 79.6224L62.8295 79.7065C62.113 76.3143 60.164 73.3084 57.3595 71.2701L57.5993 70.9419C60.4835 73.0401 62.4878 76.1327 63.225 79.6224Z" fill="#FF9501"></path> <path d="M52.4196 35.0502L52.1082 34.7977C51.191 33.6364 50.8459 32.3152 50.4462 30.2576C50.341 29.7317 50.24 29.1552 50.1222 28.5198C49.9561 27.683 49.9849 26.8192 50.2064 25.9952C50.3228 25.5561 50.4908 25.1324 50.7071 24.7329C51.1994 26.5633 51.2709 28.4651 51.4392 30.3418C51.5317 31.9511 51.8621 33.5378 52.4196 35.0502Z" fill="#263238"></path> <path d="M60.49 43.4319C55.8615 49.8697 50.0927 40.5833 46.6046 40.6506C46.0557 40.7761 45.5293 40.9847 45.0435 41.2692C44.8971 41.2486 44.7495 41.2374 44.6017 41.2355C43.9999 41.223 43.4134 41.426 42.9481 41.8077C42.6072 41.4291 44.101 39.3294 44.1851 38.8245C44.69 35.7444 47.9174 33.3839 51.0058 33.8341C51.0058 33.8341 55.9541 34.8314 57.4562 36.4261C58.424 37.4486 59.9009 38.9928 60.511 40.6338C60.7014 41.0763 60.7978 41.5534 60.7942 42.0351C60.7905 42.5167 60.687 42.9924 60.49 43.4319Z" fill="#263238"></path> <path d="M52.8278 32.8411C53.0592 34.945 53.2191 37.8904 52.0788 39.5735C51.8796 39.8538 51.768 40.187 51.7583 40.5308C51.7485 40.8746 51.841 41.2136 52.0241 41.5048C52.5332 42.2664 53.5304 43.3225 55.5039 44.5512C55.8626 44.7767 56.2732 44.9064 56.6965 44.928C57.1197 44.9496 57.5414 44.8624 57.9212 44.6745C58.3011 44.4867 58.6265 44.2046 58.8662 43.8552C59.106 43.5058 59.2522 43.1007 59.2908 42.6787C59.3228 42.2256 59.2149 41.7735 58.9816 41.3837C58.7483 40.9938 58.4009 40.6851 57.9864 40.4991C56.2823 39.6997 56.4674 38.6772 56.9934 37.0867L52.8278 32.8411Z" fill="#FFB373"></path> <path opacity="0.2" d="M54.515 34.5579L56.9471 37.0825C56.7998 37.5026 56.69 37.9348 56.6189 38.3742C55.6343 38.1428 54.1406 37.154 54.0143 36.0306C54.0578 35.506 54.2298 35.0002 54.515 34.5579Z" fill="black"></path> <path d="M61.7691 32.8201C61.6635 34.0377 61.108 35.1723 60.2109 36.0024C59.3139 36.8325 58.1398 37.2986 56.9177 37.3097H56.8882C55.9393 37.3163 55.0057 37.0709 54.1826 36.5986C53.8757 36.4297 53.5842 36.234 53.3116 36.0137C53.198 35.9254 53.0886 35.8328 52.9877 35.7444C52.6665 35.4637 52.3721 35.1538 52.1082 34.8187C51.191 33.6574 50.8459 32.3362 50.4462 30.2786C50.341 29.7527 50.24 29.1762 50.1222 28.5408C49.9561 27.704 49.9849 26.8401 50.2064 26.0162C50.3228 25.5771 50.4908 25.1534 50.7071 24.7539C50.8013 24.5781 50.9081 24.4093 51.0269 24.249C51.66 23.336 52.5617 22.6428 53.6068 22.2658C54.652 21.8887 55.7886 21.8466 56.8587 22.1451C58.6975 22.6332 59.964 24.127 60.7593 25.9573C60.8434 26.1382 60.915 26.3276 60.9823 26.5127C61.7053 28.5317 61.9739 30.6853 61.7691 32.8201Z" fill="#FFB373"></path> <path d="M56.5095 28.7638C56.5558 29.0878 56.7578 29.3319 56.9639 29.3066C57.1701 29.2814 57.3132 28.991 57.2753 28.6671C57.2374 28.3431 57.0271 28.0948 56.8209 28.1201C56.6147 28.1453 56.4885 28.4483 56.5095 28.7638Z" fill="#263238"></path> <path d="M60.1281 28.3094C60.1744 28.6376 60.3764 28.8775 60.5826 28.8522C60.7887 28.827 60.9318 28.5367 60.8939 28.2127C60.8561 27.8887 60.6457 27.6404 60.4395 27.6741C60.2333 27.7077 60.0903 27.9812 60.1281 28.3094Z" fill="#263238"></path> <path d="M59.0846 29.0331C59.4634 29.7402 59.9361 30.3927 60.49 30.9729C60.3413 31.1115 60.164 31.2157 59.9706 31.2782C59.7772 31.3407 59.5724 31.36 59.3707 31.3348L59.0846 29.0331Z" fill="#E8483F"></path> <path d="M57.7844 32.8453C57.9433 32.8496 58.1023 32.8412 58.2599 32.8201C58.2848 32.8169 58.3076 32.8042 58.3233 32.7845C58.339 32.7649 58.3464 32.7399 58.3441 32.7149C58.339 32.6904 58.325 32.6686 58.3048 32.6539C58.2845 32.6391 58.2596 32.6323 58.2347 32.635C57.836 32.6942 57.429 32.6571 57.0476 32.5268C56.6662 32.3965 56.3215 32.1767 56.0424 31.886C56.0342 31.8769 56.0241 31.8697 56.0129 31.8647C56.0016 31.8598 55.9895 31.8572 55.9772 31.8572C55.965 31.8572 55.9528 31.8598 55.9416 31.8647C55.9304 31.8697 55.9203 31.8769 55.912 31.886C55.9028 31.8946 55.8955 31.9051 55.8905 31.9166C55.8855 31.9282 55.883 31.9407 55.883 31.9533C55.883 31.9659 55.8855 31.9784 55.8905 31.99C55.8955 32.0015 55.9028 32.012 55.912 32.0206C56.1529 32.2766 56.4428 32.4815 56.7644 32.6232C57.0861 32.7649 57.433 32.8404 57.7844 32.8453Z" fill="#263238"></path> <path d="M54.9653 28.1916C55.006 28.1952 55.0467 28.1846 55.0804 28.1616C55.1142 28.1386 55.1389 28.1046 55.1504 28.0654C55.2898 27.7873 55.485 27.5411 55.7239 27.3419C55.9629 27.1428 56.2403 26.9952 56.539 26.9083C56.5889 26.8945 56.6315 26.8616 56.6574 26.8167C56.6834 26.7719 56.6907 26.7186 56.6778 26.6684C56.6649 26.6208 56.634 26.5801 56.5916 26.555C56.5491 26.5298 56.4985 26.5222 56.4506 26.5338C56.0907 26.6342 55.7569 26.8114 55.4721 27.0533C55.1873 27.2952 54.9584 27.596 54.8012 27.935C54.7847 27.9824 54.7874 28.0344 54.8086 28.08C54.8298 28.1255 54.8679 28.161 54.9148 28.179C54.9301 28.1877 54.9476 28.1921 54.9653 28.1916Z" fill="#263238"></path> <path d="M61.0117 26.4665C61.0544 26.468 61.0963 26.4554 61.131 26.4307C61.1657 26.4059 61.1913 26.3704 61.2038 26.3297C61.2163 26.2889 61.2149 26.2451 61.2 26.2052C61.185 26.1653 61.1573 26.1314 61.1211 26.1088C60.8709 25.9334 60.5807 25.8238 60.277 25.7899C59.9733 25.7561 59.666 25.7992 59.3834 25.9153C59.3388 25.9355 59.3039 25.9723 59.2858 26.0178C59.2678 26.0633 59.268 26.114 59.2866 26.1593C59.2961 26.1823 59.3102 26.203 59.3281 26.2203C59.346 26.2376 59.3673 26.251 59.3906 26.2597C59.4138 26.2683 59.4387 26.2721 59.4635 26.2708C59.4883 26.2695 59.5126 26.263 59.5348 26.2519C59.7585 26.1687 59.9989 26.141 60.2356 26.171C60.4723 26.2011 60.6982 26.288 60.8939 26.4244C60.9266 26.4527 60.9686 26.4677 61.0117 26.4665Z" fill="#263238"></path> <path d="M52.4196 31.3558C52.2471 31.5788 51.7085 30.3881 51.4308 30.3334C51.1047 30.2635 50.771 30.2352 50.4378 30.2492C50.8291 32.3068 51.1825 33.6154 52.0998 34.7893C50.5682 33.4933 49.2175 31.9028 48.6032 29.9799C48.3022 28.8998 48.2944 27.7589 48.5806 26.6748C48.8668 25.5906 49.4367 24.6023 50.2316 23.8114C50.3578 23.6978 50.5598 23.7483 50.7155 23.8114C50.8712 23.8745 51.6833 24.0512 52.0199 24.1144C52.2694 24.1747 52.5011 24.293 52.6963 24.4597C52.8915 24.6264 53.0447 24.8368 53.1433 25.0737C51.7548 27.6699 52.9456 30.6658 52.4196 31.3558Z" fill="#263238"></path> <path d="M49.4195 31.7345C49.7521 32.4173 50.3401 32.9418 51.0563 33.1946C52.0072 33.5059 52.529 32.6518 52.3186 31.705C52.1082 30.8635 51.3635 29.6727 50.3915 29.7527C50.0496 29.7938 49.738 29.9688 49.525 30.2394C49.312 30.5099 49.2151 30.8539 49.2554 31.1959C49.272 31.3849 49.3279 31.5683 49.4195 31.7345Z" fill="#FFB373"></path> <path d="M56.9892 25.3346L54.9989 24.7161C56.5053 24.7918 58.0621 24.8802 59.4086 25.5576C60.7551 26.2351 61.8238 27.6951 61.5798 29.1805C62.232 27.7961 62.8968 26.3403 62.8421 24.8086C62.7891 23.985 62.5563 23.183 62.1601 22.459C61.764 21.7349 61.214 21.1065 60.5489 20.6178C59.2005 19.6465 57.5822 19.1213 55.9204 19.1156C54.4745 19.0138 53.0388 19.4234 51.8642 20.2727C50.7912 21.1143 49.6972 23.3864 50.9048 24.5646C52.1125 25.7428 55.4239 25.5366 56.9892 25.3346Z" fill="#263238"></path> <path d="M152.197 108.849C152.024 108.362 151.69 107.948 151.25 107.675C151.132 107.625 151.031 107.578 150.956 107.536L146.803 105.033L146.007 104.557C130.342 95.254 92.8557 73.0752 87.7475 70.8073C83.9606 69.1242 78.4148 69.465 74.4259 70.0331C73.7625 70.1198 73.14 70.4023 72.6378 70.8445C72.1357 71.2867 71.7767 71.8685 71.6067 72.5156C71.4263 73.1413 71.4351 73.8065 71.632 74.4272C71.829 75.048 72.2052 75.5965 72.7134 76.0038L72.7975 76.0711C72.8783 76.1399 72.9301 76.2366 72.9426 76.3419C72.955 76.4473 72.9273 76.5534 72.8649 76.6392C72.7961 76.7199 72.6994 76.7717 72.594 76.7842C72.4887 76.7967 72.3826 76.7689 72.2968 76.7065L72.2042 76.6307C71.574 76.1238 71.1073 75.4422 70.8625 74.6713C70.6178 73.9004 70.6059 73.0744 70.8283 72.2968C71.0419 71.4994 71.4867 70.783 72.1067 70.2379C72.7267 69.6928 73.4941 69.3433 74.3123 69.2336C78.4064 68.6487 84.1163 68.3205 88.0715 70.0751C93.2259 72.3515 130.746 94.5598 146.424 103.871L151.364 106.817C151.433 106.856 151.504 106.89 151.578 106.918L151.625 106.939C152.022 107.078 152.375 107.321 152.646 107.643C152.917 107.965 153.096 108.354 153.165 108.769L152.197 108.849Z" fill="#263238"></path> <path d="M151.625 106.956L151.578 106.935C151.504 106.907 151.433 106.873 151.364 106.834L146.424 103.888C148.65 105.193 150.438 106.249 151.625 106.956Z" fill="#263238"></path> <path d="M66.629 69.2168L72.2127 71.3922C72.2127 71.3922 74.2239 67.6473 74.2576 67.2307C74.2576 67.2307 72.2505 65.9095 70.2434 66.1073L68.4047 66.4481L66.629 69.2168Z" fill="#FFB373"></path> <path d="M71.3627 71.1102L74.0851 67.1887L76.0248 68.0891C76.1097 68.1283 76.1851 68.1853 76.2459 68.2562C76.3068 68.3271 76.3517 68.4103 76.3777 68.5001C76.4036 68.5898 76.4099 68.6841 76.3962 68.7766C76.3826 68.869 76.3492 68.9574 76.2983 69.0358L74.8972 71.2239C74.7487 71.4521 74.5304 71.6263 74.2749 71.7203C74.0193 71.8143 73.7402 71.8232 73.4792 71.7456L71.3627 71.1102Z" fill="#FFB373"></path> <path d="M44.6354 66.3934C48.4223 68.169 66.0147 69.6081 66.9362 69.4482C67.2896 69.408 67.627 69.2788 67.9169 69.0727C68.2069 68.8667 68.4398 68.5905 68.594 68.27C68.7211 67.9714 68.7819 67.6487 68.7721 67.3243C68.7623 66.9999 68.6823 66.6815 68.5375 66.3911C68.3926 66.1007 68.1865 65.8451 67.9333 65.6421C67.6801 65.4391 67.3858 65.2934 67.0708 65.2152C62.9936 64.1339 52.6931 62.0174 49.55 60.6877C47.0927 59.6442 49.6972 42.2622 45.1908 41.3028C37.8694 39.7418 40.1668 64.298 44.6354 66.3934Z" fill="#FF9501"></path> <path opacity="0.1" d="M44.6354 66.3934C48.4223 68.169 66.0147 69.6081 66.9362 69.4482C67.2896 69.408 67.627 69.2788 67.9169 69.0727C68.2069 68.8667 68.4398 68.5905 68.594 68.27C68.7211 67.9714 68.7819 67.6487 68.7721 67.3243C68.7623 66.9999 68.6823 66.6815 68.5375 66.3911C68.3926 66.1007 68.1865 65.8451 67.9333 65.6421C67.6801 65.4391 67.3858 65.2934 67.0708 65.2152C62.9936 64.1339 52.6931 62.0174 49.55 60.6877C47.0927 59.6442 49.6972 42.2622 45.1908 41.3028C37.8694 39.7418 40.1668 64.298 44.6354 66.3934Z" fill="#E0E0E0"></path> </svg> 